<?xml version="1.0" encoding="utf-8"?>
<!-- Generator: Adobe Illustrator 17.0.0, SVG Export Plug-In . SVG Version: 6.00 Build 0)  -->
<!DOCTYPE svg PUBLIC "-//W3C//DTD SVG 1.1//EN" "http://www.w3.org/Graphics/SVG/1.1/DTD/svg11.dtd">
<svg version="1.1" id="Layer_1" xmlns="http://www.w3.org/2000/svg" xmlns:xlink="http://www.w3.org/1999/xlink" x="0px" y="0px"
	 width="212.399px" height="68.25px" viewBox="0 0 212.399 68.25" enable-background="new 0 0 212.399 68.25" xml:space="preserve">
<g>
	<g>
		<g>
			<g>
				<path fill="#005F9A" d="M66.781,8.365V29.44c-0.779,0-2.003,0.08-3.672,0.24v-0.36c0.845-0.28,1.443-0.88,1.795-1.8
					c0.34-0.88,0.51-2.706,0.51-5.478v-8.258c0-1.693-0.17-2.927-0.51-3.699c-0.34-0.76-0.938-1.293-1.795-1.6v-0.36
					C64.536,8.258,65.76,8.339,66.781,8.365z M68.955,29.44h-1.004V8.365c1.515-0.04,2.574-0.087,3.178-0.141
					c0.911-0.066,1.537-0.1,1.877-0.1c1.646,0,3.051,0.46,4.215,1.38c1.152,0.933,2.02,2.152,2.602,3.659
					c0.571,1.479,0.856,3.359,0.856,5.639c0,3.466-0.686,6.146-2.058,8.038c-1.383,1.894-3.255,2.84-5.615,2.84
					c-1.098,0-2.338-0.073-3.722-0.221C69.229,29.447,69.12,29.44,68.955,29.44z M69.581,10.224c-0.176,0.6-0.263,2.699-0.263,6.299
					v4.879c0,2.919,0.159,5.052,0.478,6.398c0.845,0.32,1.811,0.479,2.898,0.479c2.031,0,3.628-0.779,4.791-2.339
					c1.175-1.573,1.762-3.886,1.762-6.938c0-2.986-0.582-5.306-1.746-6.959c-1.164-1.652-2.876-2.479-5.138-2.479
					C71.189,9.564,70.261,9.784,69.581,10.224z M79.164,27.881c1.822-1.692,2.733-4.626,2.733-8.798
					c0-4.079-0.746-6.959-2.239-8.639c1.251,1,2.195,2.22,2.832,3.659c0.637,1.439,0.955,3.079,0.955,4.919
					C83.445,22.862,82.018,25.814,79.164,27.881z"/>
				<path fill="#005F9A" d="M85.191,8.365l8.545,10.997V29.44h-0.394c-0.955,0-2.059,0.08-3.311,0.24v-0.36
					c0.725-0.2,1.295-0.64,1.713-1.319c0.406-0.653,0.609-1.92,0.609-3.8v-4.379l-5.236-6.719c-1.998-2.546-3.804-4.085-5.417-4.618
					v-0.36c0.911,0.16,1.899,0.24,2.964,0.24H85.191z M95.004,29.44V18.782L86.772,8.365h0.461c1.306,0,2.656-0.08,4.05-0.24v0.36
					c-0.648,0.226-0.971,0.6-0.971,1.119c0,0.693,0.658,1.873,1.975,3.539l3.475,4.419l3.262-4.618
					c0.723-1.026,1.086-1.946,1.086-2.76c0-0.92-0.379-1.486-1.137-1.699v-0.36c0.264,0,0.934,0.054,2.01,0.16
					c0.449,0.054,0.846,0.08,1.186,0.08c0.186,0,1.152-0.08,2.898-0.24v0.36c-0.824,0.293-1.494,0.699-2.01,1.22
					c-0.494,0.519-1.059,1.246-1.695,2.179c-0.033,0.08-0.111,0.2-0.23,0.36l-4.793,6.799v5.078c0,3.08,0.791,4.813,2.371,5.199
					v0.36c-2.008-0.16-3.045-0.24-3.111-0.24H95.004z"/>
				<path fill="#005F9A" d="M108.819,8.365l18.97,19.676v1.64h-0.33l-14.918-15.417v9.298c0,2.026,0.214,3.433,0.642,4.22
					c0.429,0.786,1.104,1.299,2.025,1.539v0.36c-1.657-0.16-2.782-0.24-3.375-0.24c-0.67,0-1.68,0.08-3.03,0.24v-0.36
					c0.944-0.267,1.586-0.807,1.927-1.619c0.34-0.813,0.511-2.253,0.511-4.319l-0.017-10.438l-1.186-1.22
					c-1.646-1.707-3.035-2.786-4.166-3.239v-0.36L108.819,8.365z M127.789,26.081L110.68,8.365h1.943l13.849,14.316v-8.298
					c0-1.387-0.077-2.453-0.23-3.199c-0.154-0.707-0.467-1.3-0.94-1.78c-0.472-0.466-1.075-0.773-1.81-0.919v-0.36
					c0.011,0,0.203,0.019,0.576,0.06c1.438,0.12,2.415,0.181,2.931,0.181c0.472,0,1.598-0.08,3.376-0.24v0.36
					c-0.571,0.093-1.07,0.38-1.499,0.859c-0.417,0.453-0.702,1.014-0.855,1.68c-0.154,0.68-0.23,1.633-0.23,2.859V26.081z"/>
				<path fill="#005F9A" d="M144.305,24.601l-1.466-3.72h-6.208l-1.564,3.72l-0.082,0.26c-0.011,0.014-0.094,0.207-0.247,0.58
					c-0.23,0.56-0.346,1.133-0.346,1.72c0,1.013,0.461,1.733,1.383,2.159v0.36c-0.186,0-0.51-0.034-0.972-0.101
					c-0.647-0.093-1.23-0.14-1.745-0.14c-0.472,0-1.054,0.047-1.745,0.14c-0.473,0.066-0.785,0.101-0.939,0.101v-0.36
					c1.207-0.746,2.305-2.286,3.293-4.619l5.467-12.917c-0.417-1.026-0.991-1.819-1.721-2.38c-0.73-0.56-1.584-0.866-2.561-0.919
					v-0.36h0.576c0.516,0,1.224,0.04,2.124,0.12c0.944,0.08,1.559,0.12,1.845,0.12l8.316,21.075
					c-1.066,0.026-2.344,0.107-3.837,0.24v-0.36c0.834-0.173,1.252-0.72,1.252-1.64C145.128,27.001,144.853,25.974,144.305,24.601z
					 M137.274,19.382h4.973l-2.388-6.079L137.274,19.382z M149.03,29.44l-8.316-21.075h1.613c0.22,0.693,0.527,1.566,0.922,2.619
					c0.439,1.133,0.686,1.807,0.741,2.019c0.055,0.12,0.105,0.26,0.148,0.42l3.869,9.738c1.351,3.386,2.788,5.438,4.314,6.158v0.36
					C150.83,29.52,149.733,29.44,149.03,29.44z"/>
				<path fill="#005F9A" d="M154.332,22.502h0.379c0.077,1.706,0.643,3.112,1.696,4.219c1.031,1.094,2.217,1.64,3.557,1.64
					c1.031,0,1.871-0.353,2.52-1.06c0.647-0.706,0.972-1.553,0.972-2.539c0-1.04-0.313-1.847-0.939-2.42
					c-0.604-0.56-1.794-1.192-3.573-1.899c-1.427-0.573-2.442-1.046-3.046-1.42c-0.702-0.44-1.251-1.032-1.646-1.779
					c-0.428-0.76-0.643-1.613-0.643-2.56c0-1.053,0.291-2.086,0.873-3.1c-0.132,0.521-0.197,0.974-0.197,1.36
					c0,1.039,0.203,1.953,0.609,2.739c0.417,0.813,0.933,1.427,1.548,1.84c0.614,0.427,1.641,0.913,3.079,1.459
					c1.877,0.693,3.232,1.46,4.066,2.3c0.802,0.813,1.202,1.906,1.202,3.279c0,1.347-0.417,2.566-1.251,3.659
					c-0.846,1.107-2.107,1.659-3.787,1.659c-0.681,0-1.625-0.153-2.832-0.459c-1.055-0.267-1.845-0.407-2.372-0.42l-0.115-0.16
					c0.012-0.226,0.017-0.521,0.017-0.88c0-0.427-0.032-1.087-0.099-1.979c-0.055-0.894-0.082-1.56-0.082-2
					C154.267,23.408,154.288,22.915,154.332,22.502z M165.957,14.143h-0.346c-0.011-1.546-0.516-2.692-1.515-3.439
					c-0.977-0.732-2.163-1.1-3.557-1.1c-1.108,0-2.02,0.287-2.733,0.86c-0.725,0.573-1.087,1.26-1.087,2.059
					c0,0.853,0.285,1.526,0.857,2.02c0.593,0.533,1.762,1.166,3.507,1.899c1.625,0.68,2.761,1.233,3.409,1.659
					c0.691,0.467,1.268,1.134,1.729,2c0.461,0.894,0.691,1.887,0.691,2.979c0,1.666-0.505,2.973-1.515,3.919
					c0.373-0.626,0.56-1.506,0.56-2.64c0-1.066-0.203-2.013-0.608-2.839c-0.429-0.84-0.955-1.507-1.581-2
					c-0.637-0.507-1.674-1.046-3.112-1.619c-2.163-0.867-3.573-1.606-4.232-2.22c-0.659-0.627-0.988-1.6-0.988-2.92
					c0-1.52,0.505-2.712,1.515-3.579c1.01-0.84,2.442-1.26,4.298-1.26c1.263,0,2.805,0.267,4.627,0.8v0.141l0.033,0.76
					c0,0.399,0.011,0.88,0.033,1.439c0.032,0.68,0.049,1.279,0.049,1.8C165.99,13.211,165.98,13.637,165.957,14.143z"/>
				<path fill="#005F9A" d="M172.182,8.365h5.434V29.44h-0.493c-0.714,0-1.778,0.08-3.195,0.24v-0.36
					c0.911-0.28,1.537-0.847,1.878-1.699c0.329-0.84,0.494-2.24,0.494-4.199V9.764H172.1c-1.065,0-1.817,0.267-2.256,0.8
					c-0.439,0.533-0.807,1.54-1.104,3.019h-0.379c-0.011-0.173-0.017-0.36-0.017-0.56c0-0.267,0.023-0.606,0.066-1.021
					c0.132-1.426,0.197-2.719,0.197-3.879c0.582,0.094,1.307,0.153,2.174,0.18L172.182,8.365z M179.263,29.44h-0.429V8.365h5.928
					c1.087,0,2.157-0.08,3.211-0.24c0,0.253-0.017,0.713-0.049,1.38c-0.033,0.613-0.05,1.38-0.05,2.3
					c0,0.586-0.027,1.18-0.082,1.779h-0.395c-0.023-1.093-0.247-2-0.675-2.72c-0.439-0.733-1.367-1.1-2.783-1.1h-3.737v14.317
					c0,1.64,0.191,2.872,0.576,3.699c0.384,0.826,0.977,1.339,1.778,1.539v0.36C180.612,29.52,179.515,29.44,179.263,29.44z"/>
				<path fill="#005F9A" d="M192.107,8.365l8.546,10.997V29.44h-0.395c-0.955,0-2.058,0.08-3.31,0.24v-0.36
					c0.725-0.2,1.295-0.64,1.713-1.319c0.406-0.653,0.609-1.92,0.609-3.8v-4.379l-5.236-6.719c-1.998-2.546-3.804-4.085-5.418-4.618
					v-0.36c0.911,0.16,1.899,0.24,2.964,0.24H192.107z M201.92,29.44V18.782l-8.232-10.417h0.461c1.306,0,2.656-0.08,4.051-0.24
					v0.36c-0.648,0.226-0.972,0.6-0.972,1.119c0,0.693,0.658,1.873,1.976,3.539l3.475,4.419l3.261-4.618
					c0.724-1.026,1.086-1.946,1.086-2.76c0-0.92-0.378-1.486-1.136-1.699v-0.36c0.264,0,0.933,0.054,2.009,0.16
					c0.45,0.054,0.846,0.08,1.186,0.08c0.187,0,1.152-0.08,2.898-0.24v0.36c-0.823,0.293-1.493,0.699-2.009,1.22
					c-0.494,0.519-1.059,1.246-1.696,2.179c-0.033,0.08-0.11,0.2-0.23,0.36l-4.792,6.799v5.078c0,3.08,0.791,4.813,2.371,5.199v0.36
					c-2.009-0.16-3.046-0.24-3.112-0.24H201.92z"/>
				<path fill="#005F9A" d="M95.164,43.231v13.353c0,1.27,0.058,2.1,0.173,2.491c0.115,0.401,0.3,0.798,0.554,1.19
					c-0.423-0.149-0.75-0.388-0.98-0.714c-0.23-0.309-0.388-0.724-0.473-1.246c-0.076-0.467-0.115-1.297-0.115-2.491v-9.378
					c0-0.85-0.026-1.423-0.08-1.722c-0.062-0.336-0.2-0.635-0.415-0.896c-0.215-0.261-0.496-0.429-0.842-0.504v-0.237
					c0.238,0,0.604,0.027,1.096,0.084C94.326,43.189,94.688,43.213,95.164,43.231z M98.922,59.622l0.058,0.294
					c-0.361,0.346-0.765,0.519-1.21,0.519c-0.631,0-1.096-0.294-1.396-0.882c-0.299-0.579-0.449-1.563-0.449-2.954V43.231
					c0.461-0.019,0.788-0.042,0.98-0.069c-0.084,1.596-0.126,2.743-0.126,3.443v9.378c0,1.147,0.023,1.932,0.068,2.352
					c0.047,0.429,0.188,0.774,0.427,1.035c0.231,0.28,0.554,0.42,0.968,0.42C98.465,59.79,98.692,59.734,98.922,59.622z"/>
				<path fill="#005F9A" d="M102.626,55.045c-0.484,0.737-0.726,1.545-0.726,2.422c0,1.036,0.299,1.885,0.898,2.548
					c-0.469-0.131-0.884-0.415-1.244-0.854c-0.377-0.429-0.565-0.988-0.565-1.68C100.989,56.277,101.535,55.465,102.626,55.045z
					 M106.211,54.569v-1.483c0-0.672-0.111-1.199-0.334-1.582c-0.23-0.373-0.677-0.56-1.338-0.56c-1.029,0-1.897,0.472-2.604,1.414
					l-0.288-0.336c0.284-0.588,0.733-1.073,1.349-1.456c0.614-0.364,1.252-0.546,1.913-0.546c1.438,0,2.155,0.952,2.155,2.855v7.278
					c-0.354,0.019-0.649,0.074-0.887,0.168l0.034-0.742c-0.385,0.495-0.842,0.742-1.372,0.742c-0.607,0-1.114-0.289-1.522-0.868
					c-0.415-0.578-0.622-1.231-0.622-1.959c0-0.84,0.254-1.559,0.761-2.156c0.491-0.597,1.148-0.896,1.971-0.896
					C105.689,54.443,105.949,54.485,106.211,54.569z M106.211,58.992v-3.653c-0.254-0.037-0.469-0.056-0.646-0.056
					c-0.607,0-1.08,0.224-1.418,0.672c-0.338,0.457-0.507,0.979-0.507,1.567c0,0.532,0.142,0.985,0.427,1.358
					c0.292,0.392,0.646,0.588,1.06,0.588C105.496,59.468,105.858,59.309,106.211,58.992z M110.038,60.322l-2.214-0.168v-7.265
					c0-0.737-0.058-1.278-0.173-1.623c-0.131-0.354-0.357-0.658-0.68-0.91c0.669,0.159,1.122,0.448,1.36,0.868
					c0.238,0.429,0.357,1.199,0.357,2.31v4.324c0,0.737,0.084,1.265,0.253,1.582c0.161,0.317,0.526,0.527,1.096,0.63V60.322z"/>
				<path fill="#005F9A" d="M113.166,50.174l3.861,9.279l-0.393,0.966h-0.115l-3.238-7.74c-0.315-0.746-0.627-1.315-0.934-1.707
					c-0.3-0.364-0.673-0.603-1.118-0.714V50.02L113.166,50.174z M118.571,50.174l3.861,9.294l-0.392,0.951h-0.139l-2.628-6.382
					l-1.81,4.381l-3.458-8.244c1.037-0.057,1.722-0.107,2.052-0.154v0.238c-0.399,0.168-0.6,0.438-0.6,0.812
					c0,0.243,0.115,0.64,0.346,1.189l1.66,3.919l1.337-3.232l-0.368-0.882c-0.408-0.942-0.953-1.545-1.637-1.806V50.02
					C117.365,50.095,117.957,50.146,118.571,50.174z M125.072,53.057l-2.213,5.361l-3.424-8.244c0.615,0,1.441-0.052,2.479-0.154
					v0.238c-0.607,0.168-0.91,0.509-0.91,1.021c0,0.299,0.115,0.724,0.346,1.273l1.51,3.527l1.21-2.897
					c0.27-0.672,0.403-1.236,0.403-1.693c0-0.709-0.314-1.12-0.945-1.231V50.02c0.992,0.103,1.638,0.154,1.937,0.154
					c0.431,0,1.049-0.052,1.856-0.154l-0.035,0.238c-0.892,0.308-1.587,1.134-2.086,2.478
					C125.16,52.839,125.118,52.946,125.072,53.057z"/>
				<path fill="#005F9A" d="M136.24,51.756l-0.3-0.182c0.469-0.933,0.983-1.399,1.544-1.399h0.415v-2.702
					c0-1.176,0.107-2.029,0.323-2.562c0.207-0.55,0.6-0.984,1.176-1.302c-0.431,0.682-0.646,1.741-0.646,3.178v13.367
					c-0.915,0-1.599,0.056-2.052,0.168V60.07c0.545-0.326,0.88-0.667,1.003-1.021c0.13-0.364,0.195-1.11,0.195-2.24v-5.683h-0.483
					C136.947,51.126,136.555,51.336,136.24,51.756z M139.536,60.154V46.941c0-0.971,0.058-1.694,0.173-2.17
					c0.115-0.485,0.369-0.887,0.761-1.204c0.4-0.326,0.888-0.489,1.464-0.489c0.361,0,0.754,0.074,1.176,0.224
					c0,1.157,0.035,2.179,0.104,3.065h-0.357c-0.177-1.502-0.634-2.254-1.372-2.254c-0.445,0-0.741,0.229-0.888,0.687
					c-0.153,0.476-0.23,1.302-0.23,2.478v2.897h1.211c0.392,0,0.645-0.033,0.761-0.099c0.13-0.056,0.303-0.242,0.518-0.56l0.3,0.168
					c-0.154,0.485-0.296,0.816-0.427,0.994c-0.146,0.205-0.284,0.331-0.415,0.378c-0.154,0.047-0.453,0.069-0.899,0.069h-1.049
					v5.641c0,0.831,0.031,1.433,0.093,1.806c0.054,0.336,0.211,0.649,0.473,0.938c0.245,0.289,0.533,0.476,0.864,0.56v0.252
					C140.958,60.21,140.205,60.154,139.536,60.154z"/>
				<path fill="#005F9A" d="M146.296,45.513l1.625,1.833l-0.554,0.7l-1.613-1.819L146.296,45.513z M145.846,56.669v-6.494h0.864
					v6.984c0,1.026,0.085,1.759,0.254,2.197c0.161,0.457,0.431,0.784,0.807,0.979h-0.357c-0.515-0.279-0.906-0.672-1.175-1.176
					C145.977,58.666,145.846,57.836,145.846,56.669z M147.367,44.113l1.614,1.834l-0.542,0.7l-1.625-1.82L147.367,44.113z
					 M147.471,56.907v-6.732h0.865v6.942c0,1.698,0.487,2.547,1.464,2.547c0.314,0,0.572-0.074,0.771-0.224v0.308
					c-0.392,0.393-0.822,0.588-1.29,0.588c-0.431,0-0.792-0.158-1.084-0.475c-0.315-0.326-0.511-0.686-0.588-1.078
					C147.518,58.39,147.471,57.765,147.471,56.907z"/>
				<path fill="#005F9A" d="M154.692,50.174v9.979c-1.13,0.019-1.895,0.074-2.294,0.168V60.07c0.622-0.271,1.021-0.602,1.198-0.994
					c0.185-0.41,0.277-1.143,0.277-2.197v-3.611c0-0.998-0.108-1.712-0.323-2.142c-0.223-0.438-0.607-0.728-1.152-0.867V50.02
					C152.636,50.076,153.401,50.128,154.692,50.174z M155.522,60.154v-9.979c0.253-0.01,0.561-0.061,0.922-0.154
					c-0.046,0.364-0.077,0.989-0.093,1.876c0.808-1.251,1.384-1.876,1.729-1.876c0.199,0,0.568,0.136,1.106,0.406
					c0.469,0.242,0.787,0.363,0.957,0.363c0.223,0,0.472-0.19,0.749-0.573c0.022-0.028,0.038-0.05,0.046-0.063
					c0.008-0.014,0.042-0.058,0.104-0.133l0.266,0.154c-0.369,1.008-0.846,1.512-1.43,1.512c-0.2,0-0.588-0.154-1.164-0.462
					c-0.238-0.131-0.419-0.196-0.542-0.196c-0.368,0-0.761,0.289-1.176,0.868c0.2-0.075,0.369-0.112,0.508-0.112
					c0.215,0,0.61,0.158,1.186,0.476c0.415,0.215,0.715,0.322,0.899,0.322c0.123,0,0.25-0.047,0.381-0.14
					c-0.377,0.588-0.742,0.882-1.096,0.882c-0.161,0-0.426-0.107-0.795-0.322c-0.53-0.317-0.899-0.476-1.106-0.476
					c-0.208,0-0.415,0.135-0.623,0.405v4.255c0,0.952,0.127,1.647,0.381,2.086c0.254,0.438,0.661,0.705,1.222,0.798v0.252
					C157.054,60.21,156.243,60.154,155.522,60.154z"/>
				<path fill="#005F9A" d="M165.232,50.174v9.979c-0.884,0.019-1.606,0.074-2.167,0.168V60.07c0.537-0.224,0.891-0.536,1.06-0.938
					c0.169-0.401,0.254-1.036,0.254-1.904V53.03c0-0.84-0.096-1.475-0.288-1.904c-0.192-0.429-0.534-0.718-1.025-0.867V50.02
					C163.18,50.048,163.902,50.099,165.232,50.174z M166.003,60.154v-9.979c0.407-0.057,0.715-0.107,0.923-0.154
					c-0.031,0.346-0.051,0.621-0.058,0.826c1.006-0.645,1.905-0.966,2.696-0.966c0.769,0,1.322,0.233,1.66,0.699
					c0.338,0.485,0.507,1.167,0.507,2.044v7.53c-0.576,0-1.309,0.056-2.201,0.168V60.07c0.515-0.177,0.868-0.48,1.061-0.91
					c0.185-0.42,0.276-1.054,0.276-1.903V52.82c0-0.71-0.1-1.228-0.3-1.554c-0.191-0.309-0.588-0.462-1.187-0.462
					c-0.661,0-1.499,0.303-2.513,0.909v5.627c0,0.793,0.096,1.391,0.288,1.792c0.191,0.42,0.561,0.732,1.106,0.938v0.252
					C167.571,60.21,166.818,60.154,166.003,60.154z M172.47,60.154v-7.712c0-1.139-0.23-1.895-0.691-2.268
					c0.591,0.037,1.018,0.331,1.279,0.882c0.983-0.784,1.982-1.176,2.997-1.176c0.476,0,0.902,0.135,1.279,0.405
					c0.368,0.271,0.602,0.593,0.703,0.966c0.1,0.364,0.149,0.942,0.149,1.736v7.166c-0.354,0.019-0.695,0.047-1.025,0.084
					c0.107-0.728,0.161-1.638,0.161-2.729v-4.157c0-0.774-0.027-1.297-0.081-1.567c-0.054-0.28-0.199-0.527-0.438-0.742
					c-0.238-0.205-0.542-0.308-0.911-0.308c-0.691,0-1.552,0.331-2.582,0.994c0.031,0.084,0.047,0.345,0.047,0.783v4.801
					c0,0.868,0.1,1.517,0.3,1.946c0.191,0.41,0.545,0.681,1.06,0.812v0.252C173.58,60.21,172.831,60.154,172.47,60.154z
					 M178.959,60.154v-7.25c0-0.794-0.05-1.358-0.15-1.694c-0.1-0.345-0.307-0.672-0.622-0.979c0.6,0.094,1.023,0.341,1.268,0.742
					c0.238,0.401,0.357,1.063,0.357,1.987v4.171c0,0.942,0.101,1.633,0.3,2.071c0.2,0.439,0.562,0.729,1.084,0.868v0.252
					C180.312,60.21,179.566,60.154,178.959,60.154z"/>
			</g>
		</g>
		<g>
			<rect x="62.217" y="36.897" fill="#005F9A" width="150.181" height="0.998"/>
		</g>
	</g>
	<g>
		<g>
			<path fill="#00609A" d="M52.716,2.781l-0.08-0.02C43.928,0.831,35.052,0.12,26.749,0C18.446,0.12,9.571,0.831,0.863,2.761
				l-0.08,0.02C0.727,2.791-6.914,45.734,26.749,68.25C60.412,45.734,52.772,2.791,52.716,2.781z M26.749,65.398
				C-4.058,44.793,2.969,5.409,3.021,5.401l0.073-0.018c7.969-1.767,16.056-2.417,23.655-2.527c7.599,0.11,15.686,0.76,23.655,2.527
				l0.073,0.018C50.529,5.409,57.556,44.793,26.749,65.398z"/>
			<path fill="#00609A" d="M49.208,6.364c-7.574-1.679-15.241-2.294-22.458-2.396C19.532,4.069,11.865,4.684,4.291,6.364
				L4.221,6.381C4.173,6.389-2.456,43.776,26.749,63.309C55.954,43.776,49.326,6.389,49.277,6.381L49.208,6.364z M26.749,62.223
				C-1.585,43.272,4.771,6.969,4.819,6.961l0.067-0.016c7.378-1.636,14.839-2.231,21.864-2.326
				c7.024,0.095,14.485,0.69,21.864,2.326l0.067,0.016C48.727,6.969,55.084,43.272,26.749,62.223z"/>
		</g>
		<g>
			<g>
				<path fill="#00609A" d="M24.916,47.417c-0.003-0.231,0.142-2.661,0.257-6.184c0.118-3.522,0.196-8.137,0.125-12.724
					c-0.025-2.293-0.098-4.578-0.172-6.716c-0.088-2.137-0.186-4.127-0.291-5.829c-0.101-1.702-0.207-3.117-0.279-4.106
					c-0.079-0.989-0.124-1.553-0.124-1.553c0.417,0.982,0.818,1.971,1.222,2.966C26.144,24.689,25.883,36.116,24.916,47.417z"/>
				<path fill="#00609A" d="M26.594,43.158c0-0.093,0.019-0.63,0.044-1.499c0.014-0.434,0.03-0.952,0.049-1.538
					c0.014-0.587,0.029-1.242,0.045-1.952c0.061-2.841,0.089-6.563,0.029-10.26c-0.056-3.698-0.2-7.371-0.349-10.117
					c-0.146-2.746-0.281-4.566-0.281-4.566c0.327,0.797,0.635,1.598,0.953,2.403c0.161,4.6,0.184,9.201,0.11,13.791
					C27.106,34.01,26.912,38.593,26.594,43.158z"/>
				<path fill="#00609A" d="M27.96,40.434c-0.009-0.299,0.183-6.327,0.075-12.285c-0.045-2.978-0.136-5.937-0.242-8.15
					c-0.043-1.107-0.1-2.026-0.132-2.67c-0.035-0.644-0.054-1.011-0.054-1.011l0.74,1.948C28.521,25.672,28.395,33.073,27.96,40.434
					z"/>
				<path fill="#00609A" d="M29.149,38.21c0.002-0.121,0.018-1.394,0.042-3.236c0.012-1.843,0.021-4.255-0.019-6.651
					c-0.028-2.397-0.106-4.778-0.168-6.56c-0.038-0.89-0.069-1.631-0.091-2.15c-0.024-0.518-0.037-0.814-0.037-0.814l0.578,1.573
					C29.552,26.33,29.445,32.281,29.149,38.21z"/>
				<path fill="#00609A" d="M30.062,36.809c-0.007-0.193,0.061-4.094,0.006-7.947c-0.023-1.926-0.068-3.84-0.113-5.273
					c-0.024-0.716-0.044-1.312-0.058-1.728c-0.013-0.417-0.025-0.654-0.025-0.654c0.156,0.422,0.302,0.845,0.453,1.269
					c0.026,2.392,0,4.784-0.035,7.173C30.238,32.039,30.173,34.426,30.062,36.809z"/>
				<path fill="#00609A" d="M23.324,47.634c0.169-2.949,0.348-6.995,0.41-11.41c0.04-2.207,0.036-4.505,0.019-6.803
					c-0.029-2.297-0.075-4.594-0.158-6.797c-0.15-4.407-0.421-8.436-0.65-11.362c-0.06-0.731-0.115-1.394-0.163-1.976
					c-0.053-0.582-0.098-1.084-0.136-1.495c-0.076-0.821-0.118-1.278-0.118-1.278c0.525,1.207,1.06,2.421,1.571,3.647
					c0.69,12.531,0.47,25.088-0.611,37.489L23.324,47.634z"/>
			</g>
			<g>
				<path fill="#00609A" d="M10.243,19.916c0.044-0.055,0.135-0.168,0.27-0.336c0.136-0.167,0.315-0.39,0.554-0.643
					c0.464-0.522,1.147-1.193,2.053-1.893c0.905-0.699,2.045-1.41,3.379-1.975c0.333-0.149,0.678-0.272,1.033-0.404
					c0.355-0.116,0.721-0.243,1.096-0.34c0.375-0.109,0.759-0.193,1.152-0.282c0.392-0.074,0.794-0.153,1.201-0.206
					c3.271-0.474,6.959-0.141,10.737,0.879c0.951,0.259,1.883,0.547,2.873,0.907c0.986,0.358,2.016,0.803,3.066,1.386
					c1.048,0.578,2.123,1.332,3.141,2.31c0.129,0.117,0.252,0.251,0.377,0.381c0.124,0.132,0.25,0.26,0.371,0.399
					c0.238,0.287,0.483,0.56,0.705,0.874c0.113,0.154,0.226,0.307,0.337,0.464l0.323,0.499c0.206,0.34,0.405,0.688,0.584,1.049
					c0.723,1.439,1.206,3.017,1.458,4.597c0.25,1.583,0.284,3.168,0.144,4.704c-0.291,3.069-1.249,5.969-2.818,8.418
					c-0.1,0.15-0.2,0.307-0.3,0.45l-0.305,0.415l-0.306,0.412c-0.102,0.137-0.214,0.26-0.321,0.39
					c-0.426,0.523-0.883,0.994-1.344,1.448c-0.929,0.898-1.922,1.631-2.925,2.252c-1.005,0.615-2.026,1.119-3.043,1.504
					c-1.018,0.386-2.029,0.675-3.024,0.889c-0.995,0.205-1.976,0.328-2.928,0.394c-0.941,0.059-1.848,0.054-2.719,0.022
					c-1.738-0.086-3.326-0.306-4.74-0.572c-1.416-0.264-2.668-0.56-3.752-0.828c-1.084-0.27-2-0.514-2.745-0.71
					c0,0,0.404-0.601,0.552-0.599c1.032,0.016,2.075,0.032,3.125,0.029c1.375,0.359,2.773,0.69,4.203,0.941
					c1.431,0.247,2.892,0.423,4.379,0.463c1.481,0.036,3.013-0.06,4.522-0.351c1.509-0.298,3.009-0.775,4.467-1.468
					c1.453-0.706,2.862-1.642,4.149-2.835c0.632-0.615,1.251-1.264,1.801-2.004c0.139-0.186,0.279-0.359,0.415-0.557
					c0.135-0.199,0.273-0.396,0.398-0.603c0.26-0.407,0.492-0.833,0.716-1.265c0.876-1.739,1.47-3.653,1.755-5.662
					c0.282-2.006,0.255-4.124-0.198-6.215c-0.224-1.043-0.567-2.073-1.014-3.048c-0.228-0.485-0.478-0.96-0.761-1.409l-0.213-0.336
					l-0.223-0.315c-0.148-0.211-0.299-0.419-0.46-0.61c-0.631-0.789-1.328-1.471-2.046-2.051c-0.718-0.583-1.458-1.059-2.195-1.473
					c-1.476-0.822-2.945-1.384-4.358-1.853c-1.428-0.47-2.882-0.857-4.367-1.136c-1.485-0.277-3.001-0.455-4.549-0.476
					c-0.773-0.013-1.555,0.012-2.343,0.088c-0.788,0.076-1.582,0.187-2.379,0.37c-0.797,0.18-1.597,0.416-2.391,0.719
					c-0.795,0.304-1.583,0.687-2.352,1.141C12.916,17.153,11.47,18.413,10.243,19.916z"/>
				<path fill="#00609A" d="M19.391,16.048c0.19-0.041,1.308-0.367,3.113-0.501c0.901-0.068,1.971-0.083,3.171-0.005
					c1.199,0.085,2.527,0.258,3.942,0.561c0.707,0.151,1.438,0.328,2.185,0.541c0.748,0.215,1.505,0.451,2.297,0.739
					c0.79,0.288,1.606,0.626,2.433,1.053c0.827,0.425,1.667,0.945,2.481,1.608c0.813,0.66,1.599,1.469,2.277,2.434
					c0.34,0.486,0.655,1.013,0.926,1.567c0.269,0.555,0.502,1.135,0.695,1.731c0.766,2.396,0.877,4.988,0.499,7.404
					c-0.382,2.42-1.242,4.711-2.525,6.623c-0.638,0.928-1.337,1.758-2.085,2.494c-0.755,0.721-1.548,1.344-2.355,1.881
					c-0.811,0.528-1.638,0.959-2.458,1.329c-0.825,0.349-1.642,0.643-2.448,0.859c-1.606,0.443-3.167,0.624-4.578,0.672
					c-1.412,0.043-2.692-0.048-3.811-0.173c-1.12-0.127-2.082-0.291-2.866-0.443c-0.785-0.15-1.394-0.286-1.808-0.38
					c-0.413-0.096-0.633-0.147-0.633-0.147c1.649-0.01,3.313-0.074,4.955-0.261c2.228,0.329,4.507,0.44,6.791,0.102
					c2.273-0.339,4.532-1.099,6.602-2.423c1.033-0.662,2.014-1.468,2.898-2.424c0.214-0.247,0.435-0.488,0.643-0.744
					c0.201-0.265,0.406-0.523,0.603-0.797c0.392-0.559,0.744-1.154,1.055-1.778c1.237-2.495,1.858-5.425,1.662-8.397
					c-0.101-1.482-0.421-2.977-0.998-4.358c-0.288-0.689-0.639-1.35-1.046-1.956c-0.405-0.6-0.857-1.145-1.336-1.645
					c-0.485-0.488-0.995-0.925-1.521-1.317c-0.528-0.381-1.067-0.726-1.614-1.028c-1.093-0.601-2.206-1.064-3.307-1.454
					c-2.194-0.778-4.45-1.352-6.764-1.636C24.156,15.502,21.776,15.513,19.391,16.048z"/>
				<path fill="#00609A" d="M26.521,17.395c0.28,0.035,3.363,0.245,7.59,1.832c0.528,0.202,1.072,0.435,1.624,0.711
					c0.553,0.273,1.114,0.589,1.668,0.971c0.553,0.379,1.102,0.817,1.62,1.332c0.519,0.515,0.996,1.115,1.422,1.782
					c0.425,0.67,0.769,1.424,1.041,2.218c0.271,0.795,0.451,1.639,0.56,2.496c0.102,0.859,0.127,1.734,0.079,2.604
					c-0.054,0.869-0.173,1.735-0.366,2.575c-0.384,1.68-1.035,3.271-1.917,4.624c-0.88,1.35-1.95,2.459-3.076,3.349
					c-0.276,0.234-0.571,0.423-0.855,0.628c-0.286,0.199-0.583,0.367-0.869,0.549c-0.296,0.158-0.585,0.325-0.877,0.468
					c-0.147,0.069-0.293,0.138-0.438,0.207c-0.145,0.07-0.289,0.137-0.436,0.193c-1.162,0.49-2.297,0.81-3.354,1.017
					c-1.057,0.205-2.039,0.304-2.905,0.328c-0.867,0.027-1.623,0.012-2.243-0.03c-0.155-0.009-0.302-0.018-0.44-0.027
					c-0.138-0.012-0.267-0.024-0.387-0.035c-0.24-0.023-0.445-0.038-0.61-0.06c-0.33-0.039-0.506-0.061-0.506-0.061
					c1.297-0.153,2.577-0.385,3.815-0.724c0.864-0.001,1.724-0.05,2.58-0.165c0.855-0.123,1.703-0.306,2.539-0.553
					c0.836-0.248,1.652-0.579,2.447-0.971c0.796-0.389,1.559-0.872,2.282-1.427c0.722-0.555,1.408-1.185,2.017-1.911
					c0.16-0.172,0.302-0.365,0.448-0.555c0.145-0.19,0.294-0.376,0.426-0.578c0.27-0.399,0.523-0.815,0.747-1.255
					c0.908-1.75,1.459-3.779,1.578-5.857c0.119-2.071-0.206-4.224-1.1-6.057c-0.219-0.459-0.474-0.895-0.761-1.299l-0.215-0.304
					l-0.23-0.287c-0.15-0.196-0.317-0.372-0.481-0.551c-0.662-0.712-1.413-1.298-2.198-1.798c-1.575-1.002-3.281-1.647-4.989-2.196
					C30.038,18.033,28.291,17.623,26.521,17.395z"/>
				<path fill="#00609A" d="M30.532,19.667c0.11,0.025,0.741,0.181,1.753,0.501c1.004,0.329,2.397,0.791,3.867,1.66
					c0.183,0.11,0.369,0.221,0.55,0.348c0.186,0.119,0.366,0.254,0.548,0.392c0.186,0.133,0.356,0.292,0.54,0.439
					c0.086,0.081,0.173,0.162,0.26,0.244l0.132,0.123l0.125,0.132c0.084,0.088,0.168,0.177,0.253,0.266
					c0.079,0.095,0.159,0.19,0.239,0.286l0.121,0.144l0.112,0.154c0.075,0.103,0.151,0.206,0.226,0.31
					c0.289,0.422,0.545,0.89,0.763,1.393c0.438,1.006,0.716,2.16,0.813,3.365c0.098,1.205,0.02,2.456-0.216,3.662
					c-0.236,1.206-0.629,2.368-1.149,3.406c-0.261,0.519-0.549,1.006-0.872,1.457c-0.169,0.221-0.326,0.453-0.5,0.663
					c-0.179,0.206-0.347,0.419-0.529,0.615c-1.443,1.586-3.134,2.588-4.625,3.241c-1.506,0.637-2.829,0.937-3.757,1.085
					c-0.466,0.062-0.832,0.119-1.083,0.135c-0.251,0.023-0.384,0.035-0.384,0.035c0.953-0.32,1.871-0.724,2.737-1.203
					c1.273-0.282,2.506-0.746,3.669-1.361c1.16-0.622,2.229-1.436,3.169-2.411l0.338-0.383c0.114-0.126,0.227-0.254,0.328-0.393
					l0.315-0.408c0.104-0.137,0.195-0.277,0.291-0.417c0.371-0.571,0.701-1.19,0.976-1.847c0.549-1.315,0.894-2.77,0.988-4.241
					c0.045-0.735,0.035-1.474-0.052-2.196c-0.037-0.363-0.105-0.717-0.175-1.07c-0.082-0.348-0.168-0.695-0.284-1.027
					c-0.22-0.671-0.52-1.296-0.881-1.868c-0.368-0.573-0.802-1.1-1.289-1.57c-0.975-0.944-2.151-1.665-3.399-2.243
					C33.203,20.509,31.865,20.056,30.532,19.667z"/>
				<path fill="#00609A" d="M33.44,21.992c0.04,0.014,0.178,0.062,0.392,0.153c0.217,0.087,0.51,0.214,0.862,0.382
					c0.699,0.34,1.64,0.855,2.524,1.659c0.441,0.4,0.864,0.879,1.228,1.431c0.182,0.27,0.343,0.57,0.492,0.889
					c0.151,0.318,0.28,0.663,0.39,1.026c0.226,0.724,0.357,1.536,0.402,2.379c0.036,0.845-0.013,1.725-0.166,2.585
					c-0.145,0.862-0.39,1.701-0.698,2.479c-0.317,0.775-0.694,1.481-1.134,2.094c-0.446,0.642-0.951,1.193-1.451,1.688
					c-0.261,0.234-0.507,0.473-0.771,0.67c-0.13,0.1-0.251,0.211-0.382,0.299c-0.13,0.091-0.257,0.181-0.382,0.269
					c-1.006,0.691-1.937,1.109-2.597,1.364c-0.163,0.07-0.312,0.122-0.443,0.166c-0.13,0.045-0.241,0.083-0.33,0.114
					c-0.178,0.065-0.277,0.088-0.277,0.088c0.166-0.095,0.323-0.214,0.483-0.318c0.159-0.107,0.318-0.212,0.469-0.331l0.455-0.344
					l0.434-0.368c1.777-0.81,3.357-2.029,4.527-3.635c1.118-1.515,1.845-3.593,1.996-5.674c0.076-1.04,0.009-2.077-0.21-3.033
					c-0.221-0.959-0.582-1.824-1.102-2.571c-0.258-0.387-0.564-0.741-0.902-1.075c-0.164-0.171-0.349-0.325-0.53-0.485
					c-0.192-0.149-0.377-0.307-0.583-0.445c-0.399-0.289-0.832-0.549-1.285-0.789C34.402,22.413,33.927,22.196,33.44,21.992z"/>
				<path fill="#00609A" d="M34.882,23.782c0.027,0.014,0.118,0.063,0.266,0.142c0.138,0.088,0.344,0.196,0.567,0.353
					c0.057,0.038,0.117,0.078,0.18,0.119c0.059,0.044,0.121,0.09,0.185,0.138c0.064,0.047,0.13,0.097,0.198,0.148
					c0.064,0.054,0.13,0.109,0.198,0.166c0.143,0.109,0.266,0.244,0.412,0.371c0.065,0.069,0.132,0.139,0.201,0.211
					c0.034,0.036,0.07,0.071,0.103,0.108c0.032,0.039,0.064,0.078,0.096,0.117c0.063,0.08,0.137,0.153,0.196,0.24
					c0.062,0.084,0.125,0.17,0.189,0.257c0.057,0.087,0.114,0.176,0.173,0.265c0.052,0.096,0.111,0.186,0.162,0.287
					c0.209,0.396,0.395,0.849,0.538,1.356c0.282,1.014,0.387,2.254,0.248,3.503c-0.128,1.248-0.487,2.483-0.971,3.496
					c-0.057,0.13-0.125,0.248-0.185,0.372c-0.065,0.119-0.13,0.236-0.195,0.35c-0.07,0.109-0.132,0.225-0.203,0.328
					c-0.07,0.104-0.133,0.208-0.216,0.312c-0.304,0.422-0.614,0.801-0.927,1.126c-0.62,0.655-1.212,1.125-1.648,1.422
					c-0.108,0.076-0.204,0.144-0.288,0.203c-0.088,0.054-0.162,0.099-0.222,0.136c-0.121,0.075-0.185,0.114-0.185,0.114l0.299-0.321
					c0.1-0.105,0.187-0.225,0.281-0.334c0.091-0.113,0.185-0.219,0.271-0.334l0.25-0.348c0.568-0.445,1.093-0.939,1.558-1.489
					c0.22-0.285,0.457-0.57,0.635-0.845c0.19-0.282,0.361-0.59,0.522-0.909c0.64-1.279,1.03-2.818,1.072-4.3
					c0.028-0.742-0.039-1.464-0.175-2.135c-0.146-0.666-0.359-1.285-0.66-1.823c-0.035-0.07-0.073-0.136-0.115-0.2
					c-0.042-0.065-0.074-0.132-0.124-0.197c-0.095-0.129-0.175-0.269-0.282-0.391l-0.15-0.192l-0.166-0.184
					c-0.105-0.127-0.232-0.241-0.35-0.361C36.135,24.584,35.538,24.164,34.882,23.782z"/>
			</g>
		</g>
	</g>
</g>
</svg>
